<svg xmlns="http://www.w3.org/2000/svg" width="128" height="128" viewBox="0 0 128 128">
<defs>
    <linearGradient id="body" x1="0" y1="0" x2="1" y2="1">
      <stop offset="0" stop-color="#b84d3b"/>
      <stop offset=".45" stop-color="#28100e"/>
      <stop offset="1" stop-color="#050505"/>
    </linearGradient>
    <radialGradient id="eye"><stop offset="0" stop-color="#ffd37a"/><stop offset="1" stop-color="#ff5a36"/></radialGradient>
    </defs>

    <g>
      <path d="M70 54 Q78 42 86 30" fill="none" stroke="#b84d3b" stroke-width="5" stroke-linecap="round"/><path d="M66 50 Q62 37 58 25" fill="none" stroke="#b84d3b" stroke-width="5" stroke-linecap="round"/><path d="M50 52 Q42 40 34 29" fill="none" stroke="#b84d3b" stroke-width="5" stroke-linecap="round"/><path d="M70 74 Q78 86 86 98" fill="none" stroke="#b84d3b" stroke-width="5" stroke-linecap="round"/><path d="M66 78 Q62 90 58 103" fill="none" stroke="#b84d3b" stroke-width="5" stroke-linecap="round"/><path d="M50 76 Q42 87 34 99" fill="none" stroke="#b84d3b" stroke-width="5" stroke-linecap="round"/>
      <ellipse cx="34" cy="64" rx="27" ry="22" fill="url(#body)" stroke="#b84d3b" stroke-width="2.5"/>
      <ellipse cx="66" cy="64" rx="17" ry="14" fill="url(#body)" stroke="#b84d3b" stroke-width="2.5"/>
      <ellipse cx="92" cy="64" rx="16" ry="15" fill="url(#body)" stroke="#b84d3b" stroke-width="2.5"/>
      <path d="M100 56 Q111 43 121 38 M100 72 Q111 85 121 90" fill="none" stroke="#b84d3b" stroke-width="3.5" stroke-linecap="round"/>
      <circle cx="96" cy="59" r="3.2" fill="url(#eye)"/><circle cx="96" cy="69" r="3.2" fill="url(#eye)"/>
      <path d="M18 48 Q4 64 18 80" fill="none" stroke="#cf5a43" stroke-width="5"/>
        <path d="M15 42 L8 48 L4 40 M15 86 L8 80 L4 88" fill="none" stroke="#cf5a43" stroke-width="3"/>
        <path d="M78 49 L84 39 L90 48" fill="none" stroke="#cf5a43" stroke-width="4"/>
      <path d="M27 55 Q38 48 49 53 M27 73 Q38 80 49 75" fill="none" stroke="#e7b968" stroke-width="2" opacity=".35"/>
    </g>
</svg>